<svg id="question-mark" xmlns="http://www.w3.org/2000/svg" width="56" height="84.919" viewBox="0 0 56 84.919">
  <path id="Path_5" data-name="Path 5" d="M32.19,0C46.879,0,61.34,6.765,61.34,22.945c0,14.921-17.1,20.66-20.771,26.052-2.757,4.011-1.836,9.646-9.411,9.646-4.934,0-7.344-4.013-7.344-7.685,0-13.665,20.078-16.757,20.078-28.009,0-6.193-4.812-8.655-11.7-8.655-14.689,0-8.262,13.933-19.387,13.933-4.016,0-7.463-2.41-7.463-7C5.337,9.974,18.187,0,32.19,0Zm-.571,66.093a9.413,9.413,0,1,1-9.413,9.413A9.455,9.455,0,0,1,31.619,66.093Z" transform="translate(-5.34)" fill="#e4e4e4"/>
</svg>
